<svg width="262" height="291" viewBox="0 0 262 291" fill="none" xmlns="http://www.w3.org/2000/svg">
    <circle cx="135.5" cy="151.5" r="125" fill="white" stroke="#707070" stroke-width="3"/>
    <path d="M2 152L67 289.5L30 152L74 43L196.5 1.5L67 30L2 152Z" fill="white" stroke="#707070" stroke-width="3"/>
    <path d="M30.5 154H2.5M73.5 42.5L67 29.5" stroke="#707070" stroke-width="5"/>
    <path d="M86.3913 166.944L50.5942 179L105.232 175.754L86.3913 158.598L67.5507 141.441L109 96L72.2609 119.88L44 138.196L86.3913 166.944Z" fill="#707070" stroke="#BBBBBB"/>
    <path d="M98 112L105.86 188L110.484 150L141 127.293L98 112Z" fill="#707070" stroke="#BBBBBB"/>
    <path d="M176 178H117L144.473 173.756V125.659L132.313 120H176L153.481 125.659V173.756L176 178Z" fill="#707070" stroke="#BBBBBB"/>
    <path d="M176 114V187.888L182.019 162.329L192.667 193L201 183.706L196.833 114L192.667 178.594L176 114Z" fill="#707070" stroke="#BBBBBB"/>
    <path d="M205 183V116L249 122.559L209.536 129.119V148.329L225.412 153.014H209.536V167.07L249 177.378L205 183Z" fill="#707070" stroke="#BBBBBB"/>
    <path d="M112.194 140L109 122L127 128.453L112.194 140Z" fill="white" stroke="#BBBBBB"/>
</svg>